# This file uses centimeters as units for non-parametric coordinates.

mtllib books.mtl
g default
v 62.490180 28.686616 -20.741249
v 62.490180 29.198561 -22.574445
v 62.490180 35.136014 -18.940186
v 62.490180 35.647952 -20.773379
v 55.362402 35.136014 -18.940183
v 55.362402 35.647952 -20.773379
v 55.362402 28.686616 -20.741249
v 55.362402 29.198561 -22.574448
v 62.490180 35.612340 -20.645861
v 55.362402 35.612340 -20.645861
v 55.362402 29.162946 -22.446927
v 62.490180 29.162946 -22.446927
v 62.490193 35.174203 -19.076942
v 55.362402 35.174203 -19.076942
v 55.362402 28.724812 -20.878008
v 62.490193 28.724812 -20.878008
v 55.585613 35.647952 -20.773379
v 55.585613 35.612340 -20.645861
v 55.585626 35.174203 -19.076942
v 55.585613 35.136014 -18.940186
v 55.585613 28.686616 -20.741249
v 55.585626 28.724812 -20.878008
v 55.585613 29.162946 -22.446927
v 55.585613 29.198561 -22.574448
v 62.207824 35.647952 -20.773379
v 62.207824 35.612340 -20.645861
v 62.207824 35.174203 -19.076942
v 62.207824 35.136014 -18.940186
v 62.207824 28.686616 -20.741249
v 62.207824 28.724812 -20.878008
v 62.207824 29.162946 -22.446927
v 62.207824 29.198561 -22.574445
v 62.490180 35.407892 -20.840420
v 62.207824 35.407892 -20.840420
v 55.585613 35.407892 -20.840420
v 55.362402 35.407892 -20.840420
v 55.362402 35.372277 -20.712902
v 55.362402 34.934140 -19.143983
v 55.362402 34.895950 -19.007224
v 55.585613 34.895950 -19.007224
v 62.207824 34.895950 -19.007224
v 62.490180 34.895950 -19.007224
v 62.490180 29.344173 -22.533780
v 62.207824 29.344173 -22.533780
v 55.585613 29.344173 -22.533780
v 55.362402 29.344173 -22.533780
v 55.362402 29.308565 -22.406262
v 55.362402 28.870425 -20.837344
v 55.362402 28.832228 -20.700584
v 55.585613 28.832228 -20.700584
v 62.207824 28.832228 -20.700584
v 62.490180 28.832228 -20.700584
vt 0.855392 0.089224
vt 0.859811 0.089224
vt 0.859811 0.091570
vt 0.855392 0.091570
vt 0.855392 0.148466
vt 0.859811 0.148466
vt 0.859811 0.150672
vt 0.855392 0.150672
vt 0.855392 0.264605
vt 0.859811 0.264605
vt 0.859811 0.266952
vt 0.855392 0.266952
vt 0.914634 0.087018
vt 0.916981 0.087018
vt 0.916981 0.089224
vt 0.914634 0.089224
vt 0.853045 0.087018
vt 0.855392 0.087018
vt 0.853045 0.089224
vt 0.910513 0.089224
vt 0.914634 0.091570
vt 0.910513 0.091570
vt 0.910513 0.150672
vt 0.910513 0.148466
vt 0.914634 0.148466
vt 0.914634 0.150672
vt 0.910513 0.266952
vt 0.910513 0.264605
vt 0.914634 0.264605
vt 0.914634 0.266952
vt 0.910513 0.146611
vt 0.914634 0.146611
vt 0.859811 0.146611
vt 0.855392 0.146611
vt 0.796149 0.087018
vt 0.798004 0.087018
vt 0.798004 0.089224
vt 0.796149 0.089224
vt 0.855392 0.207709
vt 0.859811 0.207709
vt 0.859811 0.209565
vt 0.855392 0.209565
vt 0.910513 0.209565
vt 0.910513 0.207709
vt 0.914634 0.209565
vt 0.914634 0.207709
vt 0.972022 0.089224
vt 0.972022 0.087018
vt 0.973877 0.087018
vt 0.973877 0.089224
vt 0.914634 0.031318
vt 0.916981 0.031318
vt 0.972022 0.031318
vt 0.973877 0.031318
vt 0.910513 0.206372
vt 0.914634 0.206372
vt 0.859811 0.206372
vt 0.855392 0.206372
vt 0.796149 0.031318
vt 0.798004 0.031318
vt 0.853045 0.031318
vt 0.855392 0.031318
vt 0.914634 0.029981
vt 0.916981 0.029981
vt 0.972022 0.029981
vt 0.973877 0.029981
vt 0.796149 0.029981
vt 0.798004 0.029981
vt 0.853045 0.029981
vt 0.855392 0.029981
vn 0.000000 0.963148 0.268972
vn 0.000000 0.963150 0.268966
vn 0.000000 0.963149 0.268968
vn 0.000000 0.963154 0.268951
vn -1.000000 0.000020 0.000000
vn -1.000000 0.000002 0.000000
vn -1.000000 0.000000 0.000000
vn -1.000000 0.000001 0.000000
vn 0.000000 -0.963137 -0.269012
vn 0.000000 -0.963149 -0.268969
vn 0.000000 -0.963150 -0.268966
vn 0.000000 -0.963143 -0.268989
vn 0.000000 0.268976 -0.963147
vn 0.000000 0.268970 -0.963148
vn 0.000000 0.268974 -0.963147
vn 0.000000 0.268971 -0.963148
vn 0.000000 -0.268969 0.963149
vn 0.000000 -0.268975 0.963147
vn 0.000000 -0.268959 0.963152
vn 0.000000 -0.268960 0.963151
vn 0.000000 0.963150 0.268966
vn 0.000000 0.963150 0.268965
vn 0.000000 0.963146 0.268978
vn 0.000000 0.963149 0.268970
vn -1.000000 0.000000 0.000000
vn -1.000000 0.000000 0.000000
vn -1.000000 0.000000 0.000000
vn -1.000000 0.000002 0.000000
vn 0.000000 -0.963150 -0.268966
vn 0.000000 -0.963149 -0.268968
vn 0.000000 -0.963140 -0.269000
vn 0.000000 -0.963145 -0.268983
vn 0.000000 0.963149 0.268970
vn 0.000000 0.963146 0.268979
vn 0.000000 0.963146 0.268979
vn 0.000000 0.963147 0.268974
vn 0.000000 0.963149 0.268968
vn 0.000000 0.963148 0.268974
vn 0.000000 0.963154 0.268951
vn 0.000003 0.963147 0.268975
vn 0.000000 -0.268970 0.963149
vn 0.000000 -0.268969 0.963149
vn 0.000000 -0.268960 0.963151
vn 0.000000 -0.268973 0.963148
vn 0.000000 -0.963137 -0.269011
vn 0.000000 -0.963148 -0.268973
vn 0.000000 -0.963149 -0.268969
vn 0.000000 -0.963137 -0.269013
vn 0.000000 -0.963149 -0.268968
vn 0.000000 -0.963148 -0.268972
vn 0.000000 -0.963140 -0.269000
vn 0.000000 -0.963140 -0.269002
vn 0.000000 0.268974 -0.963147
vn 0.000000 0.268970 -0.963149
vn 0.000000 0.268970 -0.963148
vn 0.000000 0.268977 -0.963147
vn 0.000000 0.268976 -0.963147
vn 0.000000 0.268970 -0.963148
vn 0.000000 0.268970 -0.963149
vn 0.000000 0.268971 -0.963148
vn -1.000000 0.000000 0.000000
vn -1.000000 -0.000000 0.000000
vn -1.000000 0.000000 0.000000
vn -1.000000 0.000000 0.000000
vn 0.000000 -0.268970 0.963149
vn 0.000000 -0.268970 0.963149
vn 0.000000 -0.268970 0.963149
vn 0.000000 -0.268976 0.963147
vn 0.000000 0.268974 -0.963147
vn 0.000001 0.268980 -0.963146
vn 0.000001 0.268980 -0.963146
vn 0.000000 0.268984 -0.963144
vn -1.000000 -0.000005 0.000000
vn -1.000000 -0.000072 0.000000
vn -1.000000 0.000000 0.000000
vn -1.000000 0.000000 0.000000
vn 0.000000 -0.268974 0.963147
vn 0.000000 -0.268975 0.963147
vn 0.000000 -0.268976 0.963147
vn 0.000000 -0.268979 0.963146
s 1
g book2 disk
usemtl blinn2SG
f 3/1/1 13/2/2 27/3/3 28/4/4
s 2
f 5/5/5 14/6/6 38/7/7 39/8/8
s 3
f 29/9/9 30/10/10 16/11/11 1/12/12
s 4
f 33/13/13 34/14/14 25/15/15 4/16/16
s 5
f 41/17/17 42/18/18 3/1/19 28/19/20
s 1
f 9/20/21 4/16/22 25/21/23 26/22/24
s 2
f 37/23/25 10/24/26 6/25/27 36/26/28
s 3
f 12/27/29 31/28/30 32/29/31 2/30/32
s 1
f 13/2/2 9/20/21 26/22/24 27/3/3
s 2
f 38/7/7 14/6/6 10/24/26 37/23/25
s 3
f 16/11/11 30/10/10 31/28/30 12/27/29
s 1
f 18/31/33 17/32/34 6/25/35 10/24/36
f 19/33/37 18/31/33 10/24/36 14/6/38
f 20/34/39 19/33/37 14/6/38 5/5/40
s 5
f 39/35/41 40/36/42 20/37/43 5/38/44
s 3
f 7/39/45 15/40/46 22/41/47 21/42/48
f 23/43/49 22/41/47 15/40/46 11/44/50
f 24/45/51 23/43/49 11/44/50 8/46/52
s 4
f 17/47/53 35/48/54 36/49/55 6/50/56
s 1
f 26/22/24 25/21/23 17/32/34 18/31/33
f 27/3/3 26/22/24 18/31/33 19/33/37
f 28/4/4 27/3/3 19/33/37 20/34/39
s 5
f 40/36/42 41/17/17 28/19/20 20/37/43
s 3
f 21/42/48 22/41/47 30/10/10 29/9/9
f 31/28/30 30/10/10 22/41/47 23/43/49
f 32/29/31 31/28/30 23/43/49 24/45/51
s 4
f 25/15/15 34/14/14 35/48/54 17/47/53
f 43/51/57 44/52/58 34/14/14 33/13/13
f 35/48/54 34/14/14 44/52/58 45/53/59
f 36/49/55 35/48/54 45/53/59 46/54/60
s 2
f 47/55/61 37/23/25 36/26/28 46/56/62
usemtl lambert20SG
f 48/57/63 38/7/7 37/23/25 47/55/61
usemtl blinn2SG
f 39/8/8 38/7/7 48/57/63 49/58/64
s 5
f 49/59/65 50/60/66 40/36/42 39/35/41
f 50/60/66 51/61/67 41/17/17 40/36/42
f 51/61/67 52/62/68 42/18/18 41/17/17
s 4
f 2/63/69 32/64/70 44/52/58 43/51/57
f 45/53/59 44/52/58 32/64/70 24/65/71
f 46/54/60 45/53/59 24/65/71 8/66/72
s 2
f 11/44/73 47/55/61 46/56/62 8/46/74
f 15/40/75 48/57/63 47/55/61 11/44/73
f 49/58/64 48/57/63 15/40/75 7/39/76
s 5
f 7/67/77 21/68/78 50/60/66 49/59/65
f 21/68/78 29/69/79 51/61/67 50/60/66
f 29/69/79 1/70/80 52/62/68 51/61/67
g default
v 62.490180 28.753188 -17.021585
v 62.490180 28.753188 -18.924925
v 62.490180 35.449344 -17.021585
v 62.490180 35.449344 -18.924925
v 55.362402 35.449344 -17.021585
v 55.362402 35.449344 -18.924925
v 55.362402 28.753188 -17.021585
v 55.362402 28.753188 -18.924925
v 62.490180 35.449344 -18.792527
v 55.362402 35.449344 -18.792527
v 55.362402 28.753188 -18.792527
v 62.490180 28.753188 -18.792527
v 62.490193 35.449344 -17.163577
v 55.362402 35.449344 -17.163577
v 55.362402 28.753188 -17.163577
v 62.490193 28.753188 -17.163577
v 55.585613 35.449344 -18.924925
v 55.585613 35.449344 -18.792527
v 55.585626 35.449344 -17.163577
v 55.585613 35.449344 -17.021585
v 55.585613 28.753188 -17.021585
v 55.585626 28.753188 -17.163577
v 55.585613 28.753188 -18.792527
v 55.585613 28.753188 -18.924925
v 62.207824 35.449344 -18.924925
v 62.207824 35.449344 -18.792527
v 62.207824 35.449344 -17.163577
v 62.207824 35.449344 -17.021585
v 62.207824 28.753188 -17.021585
v 62.207824 28.753188 -17.163577
v 62.207824 28.753188 -18.792527
v 62.207824 28.753188 -18.924925
v 62.490180 35.200098 -18.924925
v 62.207824 35.200098 -18.924925
v 55.585613 35.200098 -18.924925
v 55.362402 35.200098 -18.924925
v 55.362402 35.200098 -18.792527
v 55.362402 35.200098 -17.163577
v 55.362402 35.200098 -17.021585
v 55.585613 35.200098 -17.021585
v 62.207824 35.200098 -17.021585
v 62.490180 35.200098 -17.021585
v 62.490180 28.904369 -18.924925
v 62.207824 28.904369 -18.924925
v 55.585613 28.904369 -18.924925
v 55.362402 28.904369 -18.924925
v 55.362402 28.904369 -18.792527
v 55.362402 28.904369 -17.163577
v 55.362402 28.904369 -17.021585
v 55.585613 28.904369 -17.021585
v 62.207824 28.904369 -17.021585
v 62.490180 28.904369 -17.021585
vt 0.078802 0.812644
vt 0.083369 0.812644
vt 0.083369 0.815068
vt 0.078802 0.815068
vt 0.078802 0.873853
vt 0.083369 0.873853
vt 0.083369 0.876132
vt 0.078802 0.876132
vt 0.078802 0.993847
vt 0.083369 0.993847
vt 0.083369 0.996272
vt 0.078802 0.996272
vt 0.140012 0.810365
vt 0.142437 0.810365
vt 0.142437 0.812644
vt 0.140012 0.812644
vt 0.076378 0.810365
vt 0.078802 0.810365
vt 0.076378 0.812644
vt 0.135754 0.812644
vt 0.140012 0.815068
vt 0.135754 0.815068
vt 0.135754 0.876132
vt 0.135754 0.873853
vt 0.140012 0.873853
vt 0.140012 0.876132
vt 0.135754 0.996272
vt 0.135754 0.993847
vt 0.140012 0.993847
vt 0.140012 0.996272
vt 0.135754 0.871936
vt 0.140012 0.871936
vt 0.083369 0.871936
vt 0.078802 0.871936
vt 0.017593 0.810365
vt 0.019510 0.810365
vt 0.019510 0.812644
vt 0.017593 0.812644
vt 0.078802 0.935063
vt 0.083369 0.935063
vt 0.083369 0.936979
vt 0.078802 0.936979
vt 0.135754 0.936979
vt 0.135754 0.935063
vt 0.140012 0.936979
vt 0.140012 0.935063
vt 0.199305 0.812644
vt 0.199305 0.810365
vt 0.201221 0.810365
vt 0.201221 0.812644
vt 0.140012 0.752816
vt 0.142437 0.752816
vt 0.199305 0.752816
vt 0.201221 0.752816
vt 0.135754 0.933681
vt 0.140012 0.933681
vt 0.083369 0.933681
vt 0.078802 0.933681
vt 0.017593 0.752816
vt 0.019510 0.752816
vt 0.076378 0.752816
vt 0.078802 0.752816
vt 0.140012 0.751434
vt 0.142437 0.751434
vt 0.199305 0.751434
vt 0.201221 0.751434
vt 0.017593 0.751434
vt 0.019510 0.751434
vt 0.076378 0.751434
vt 0.078802 0.751434
vn 0.000000 1.000000 0.000000
vn 0.000000 1.000000 0.000000
vn 0.000000 1.000000 0.000000
vn 0.000000 1.000000 0.000012
vn -1.000000 0.000000 0.000000
vn -1.000000 0.000000 0.000000
vn -1.000000 0.000000 0.000000
vn -1.000000 0.000000 0.000000
vn 0.000000 -1.000000 0.000000
vn 0.000000 -1.000000 0.000000
vn 0.000000 -1.000000 0.000001
vn 0.000000 -1.000000 0.000000
vn 0.000000 0.000000 -1.000000
vn 0.000000 0.000000 -1.000000
vn 0.000000 0.000000 -1.000000
vn 0.000000 0.000000 -1.000000
vn 0.000000 0.000000 1.000000
vn 0.000000 0.000000 1.000000
vn 0.000000 0.000000 1.000000
vn 0.000000 0.000000 1.000000
vn 0.000000 1.000000 0.000000
vn 0.000000 1.000000 0.000000
vn 0.000000 1.000000 0.000000
vn 0.000000 1.000000 -0.000001
vn -1.000000 0.000000 0.000000
vn -1.000000 0.000000 0.000000
vn -1.000000 0.000000 0.000000
vn -1.000000 0.000000 0.000000
vn 0.000000 -1.000000 0.000001
vn 0.000000 -1.000000 0.000000
vn 0.000000 -1.000000 0.000000
vn 0.000000 -1.000000 0.000000
vn 0.000000 1.000000 -0.000001
vn 0.000000 1.000000 0.000000
vn 0.000000 1.000000 0.000000
vn 0.000000 1.000000 0.000002
vn 0.000000 1.000000 0.000000
vn 0.000000 1.000000 0.000000
vn 0.000000 1.000000 0.000011
vn 0.000000 1.000000 -0.000023
vn 0.000000 0.000000 1.000000
vn 0.000000 0.000000 1.000000
vn 0.000000 0.000000 1.000000
vn 0.000000 0.000000 1.000000
vn 0.000000 -1.000000 0.000023
vn 0.000000 -1.000000 -0.000000
vn 0.000000 -1.000000 -0.000000
vn 0.000000 -1.000000 0.000001
vn 0.000000 -1.000000 -0.000000
vn 0.000000 -1.000000 -0.000002
vn 0.000000 -1.000000 0.000000
vn 0.000000 -1.000000 0.000000
vn 0.000000 0.000000 -1.000000
vn 0.000000 0.000000 -1.000000
vn 0.000000 0.000000 -1.000000
vn 0.000000 0.000000 -1.000000
vn 0.000000 0.000000 -1.000000
vn 0.000000 0.000000 -1.000000
vn 0.000000 0.000000 -1.000000
vn 0.000000 0.000000 -1.000000
vn -1.000000 0.000000 0.000000
vn -1.000000 0.000000 0.000000
vn -1.000000 0.000000 0.000000
vn -1.000000 0.000000 0.000000
vn 0.000000 0.000000 1.000000
vn 0.000000 0.000000 1.000000
vn 0.000000 0.000000 1.000000
vn 0.000000 0.000000 1.000000
vn 0.000000 0.000000 -1.000000
vn 0.000000 0.000000 -1.000000
vn 0.000000 0.000000 -1.000000
vn 0.000000 0.000000 -1.000000
vn -1.000000 0.000000 0.000000
vn -1.000000 0.000000 0.000000
vn -1.000000 0.000000 0.000000
vn -1.000000 0.000000 0.000000
vn 0.000000 0.000000 1.000000
vn 0.000000 0.000000 1.000000
vn 0.000000 0.000000 1.000000
vn 0.000000 0.000000 1.000000
s 1
g disk book1
usemtl blinn2SG
f 55/71/81 65/72/82 79/73/83 80/74/84
s 2
f 57/75/85 66/76/86 90/77/87 91/78/88
s 3
f 81/79/89 82/80/90 68/81/91 53/82/92
s 4
f 85/83/93 86/84/94 77/85/95 56/86/96
s 5
f 93/87/97 94/88/98 55/71/99 80/89/100
s 1
f 61/90/101 56/86/102 77/91/103 78/92/104
s 2
f 89/93/105 62/94/106 58/95/107 88/96/108
s 3
f 64/97/109 83/98/110 84/99/111 54/100/112
s 1
f 65/72/82 61/90/101 78/92/104 79/73/83
s 2
f 90/77/87 66/76/86 62/94/106 89/93/105
s 3
f 68/81/91 82/80/90 83/98/110 64/97/109
s 1
f 70/101/113 69/102/114 58/95/115 62/94/116
f 71/103/117 70/101/113 62/94/116 66/76/118
f 72/104/119 71/103/117 66/76/118 57/75/120
s 5
f 91/105/121 92/106/122 72/107/123 57/108/124
s 3
f 59/109/125 67/110/126 74/111/127 73/112/128
f 75/113/129 74/111/127 67/110/126 63/114/130
f 76/115/131 75/113/129 63/114/130 60/116/132
s 4
f 69/117/133 87/118/134 88/119/135 58/120/136
s 1
f 78/92/104 77/91/103 69/102/114 70/101/113
f 79/73/83 78/92/104 70/101/113 71/103/117
f 80/74/84 79/73/83 71/103/117 72/104/119
s 5
f 92/106/122 93/87/97 80/89/100 72/107/123
s 3
f 73/112/128 74/111/127 82/80/90 81/79/89
f 83/98/110 82/80/90 74/111/127 75/113/129
f 84/99/111 83/98/110 75/113/129 76/115/131
s 4
f 77/85/95 86/84/94 87/118/134 69/117/133
f 95/121/137 96/122/138 86/84/94 85/83/93
f 87/118/134 86/84/94 96/122/138 97/123/139
f 88/119/135 87/118/134 97/123/139 98/124/140
s 2
f 99/125/141 89/93/105 88/96/108 98/126/142
f 100/127/143 90/77/87 89/93/105 99/125/141
f 91/78/88 90/77/87 100/127/143 101/128/144
s 5
f 101/129/145 102/130/146 92/106/122 91/105/121
f 102/130/146 103/131/147 93/87/97 92/106/122
f 103/131/147 104/132/148 94/88/98 93/87/97
s 4
f 54/133/149 84/134/150 96/122/138 95/121/137
f 97/123/139 96/122/138 84/134/150 76/135/151
f 98/124/140 97/123/139 76/135/151 60/136/152
s 2
f 63/114/153 99/125/141 98/126/142 60/116/154
f 67/110/155 100/127/143 99/125/141 63/114/153
f 101/128/144 100/127/143 67/110/155 59/109/156
s 5
f 59/137/157 73/138/158 102/130/146 101/129/145
f 73/138/158 81/139/159 103/131/147 102/130/146
f 81/139/159 53/140/160 104/132/148 103/131/147
g default
v 62.490180 28.828661 -14.768905
v 62.490180 28.828661 -16.672245
v 62.490180 35.524819 -14.768905
v 62.490180 35.524819 -16.672245
v 55.362402 35.524819 -14.768905
v 55.362402 35.524819 -16.672245
v 55.362402 28.828661 -14.768905
v 55.362402 28.828661 -16.672245
v 62.490180 35.524819 -16.539847
v 55.362402 35.524819 -16.539847
v 55.362402 28.828661 -16.539847
v 62.490180 28.828661 -16.539847
v 62.490193 35.524819 -14.910897
v 55.362402 35.524819 -14.910897
v 55.362402 28.828661 -14.910897
v 62.490193 28.828661 -14.910897
v 55.585613 35.524819 -16.672245
v 55.585613 35.524819 -16.539847
v 55.585626 35.524819 -14.910897
v 55.585613 35.524819 -14.768905
v 55.585613 28.828661 -14.768905
v 55.585626 28.828661 -14.910897
v 55.585613 28.828661 -16.539847
v 55.585613 28.828661 -16.672245
v 62.207824 35.524819 -16.672245
v 62.207824 35.524819 -16.539847
v 62.207824 35.524819 -14.910897
v 62.207824 35.524819 -14.768905
v 62.207824 28.828661 -14.768905
v 62.207824 28.828661 -14.910897
v 62.207824 28.828661 -16.539847
v 62.207824 28.828661 -16.672245
v 62.490180 35.275574 -16.672245
v 62.207824 35.275574 -16.672245
v 55.585613 35.275574 -16.672245
v 55.362402 35.275574 -16.672245
v 55.362402 35.275574 -16.539847
v 55.362402 35.275574 -14.910897
v 55.362402 35.275574 -14.768905
v 55.585613 35.275574 -14.768905
v 62.207824 35.275574 -14.768905
v 62.490180 35.275574 -14.768905
v 62.490180 28.979851 -16.672245
v 62.207824 28.979851 -16.672245
v 55.585613 28.979851 -16.672245
v 55.362402 28.979851 -16.672245
v 55.362402 28.979851 -16.539847
v 55.362402 28.979851 -14.910897
v 55.362402 28.979851 -14.768905
v 55.585613 28.979851 -14.768905
v 62.207824 28.979851 -14.768905
v 62.490180 28.979851 -14.768905
vt 0.124213 0.141808
vt 0.129080 0.141808
vt 0.129080 0.144393
vt 0.124213 0.144393
vt 0.124213 0.207055
vt 0.129080 0.207055
vt 0.129080 0.209484
vt 0.124213 0.209484
vt 0.124213 0.334965
vt 0.129080 0.334965
vt 0.129080 0.337549
vt 0.124213 0.337549
vt 0.189460 0.139380
vt 0.192044 0.139380
vt 0.192044 0.141808
vt 0.189460 0.141808
vt 0.121628 0.139380
vt 0.124213 0.139380
vt 0.121628 0.141808
vt 0.184921 0.141808
vt 0.189460 0.144393
vt 0.184921 0.144393
vt 0.184921 0.209484
vt 0.184921 0.207055
vt 0.189460 0.207055
vt 0.189460 0.209484
vt 0.184921 0.337549
vt 0.184921 0.334965
vt 0.189460 0.334965
vt 0.189460 0.337549
vt 0.184921 0.205012
vt 0.189460 0.205012
vt 0.129080 0.205012
vt 0.124213 0.205012
vt 0.058966 0.139380
vt 0.061009 0.139380
vt 0.061009 0.141808
vt 0.058966 0.141808
vt 0.124213 0.272302
vt 0.129080 0.272302
vt 0.129080 0.274346
vt 0.124213 0.274346
vt 0.184921 0.274346
vt 0.184921 0.272302
vt 0.189460 0.274346
vt 0.189460 0.272302
vt 0.252664 0.141808
vt 0.252664 0.139380
vt 0.254707 0.139380
vt 0.254707 0.141808
vt 0.189460 0.078035
vt 0.192044 0.078035
vt 0.252664 0.078035
vt 0.254707 0.078035
vt 0.184921 0.270829
vt 0.189460 0.270829
vt 0.129080 0.270829
vt 0.124213 0.270829
vt 0.058966 0.078035
vt 0.061009 0.078035
vt 0.121628 0.078035
vt 0.124213 0.078035
vt 0.189460 0.076561
vt 0.192044 0.076561
vt 0.252664 0.076561
vt 0.254707 0.076561
vt 0.058966 0.076561
vt 0.061009 0.076561
vt 0.121628 0.076561
vt 0.124213 0.076561
vn 0.000000 1.000000 0.000000
vn 0.000000 1.000000 0.000000
vn 0.000000 1.000000 0.000000
vn 0.000000 1.000000 0.000012
vn -1.000000 0.000000 0.000000
vn -1.000000 0.000000 0.000000
vn -1.000000 0.000000 0.000000
vn -1.000000 0.000000 0.000000
vn 0.000000 -1.000000 -0.000023
vn 0.000000 -1.000000 0.000000
vn 0.000000 -1.000000 0.000000
vn 0.000000 -1.000000 0.000018
vn 0.000000 0.000000 -1.000000
vn 0.000000 0.000000 -1.000000
vn 0.000000 0.000000 -1.000000
vn 0.000000 0.000000 -1.000000
vn 0.000000 0.000000 1.000000
vn 0.000000 0.000000 1.000000
vn 0.000000 0.000000 1.000000
vn 0.000000 0.000000 1.000000
vn 0.000000 1.000000 0.000000
vn 0.000000 1.000000 0.000000
vn 0.000000 1.000000 0.000000
vn 0.000000 1.000000 -0.000001
vn -1.000000 0.000000 0.000000
vn -1.000000 0.000000 0.000000
vn -1.000000 0.000000 0.000000
vn -1.000000 0.000000 0.000000
vn 0.000000 -1.000000 -0.000001
vn 0.000000 -1.000000 0.000002
vn 0.000000 -1.000000 0.000000
vn 0.000000 -1.000000 0.000000
vn 0.000000 1.000000 -0.000001
vn 0.000000 1.000000 0.000000
vn 0.000000 1.000000 0.000000
vn 0.000000 1.000000 0.000000
vn 0.000000 1.000000 0.000000
vn 0.000000 1.000000 0.000000
vn 0.000000 1.000000 0.000012
vn 0.000000 1.000000 0.000000
vn 0.000000 0.000000 1.000000
vn 0.000000 0.000000 1.000000
vn 0.000000 0.000000 1.000000
vn 0.000000 0.000000 1.000000
vn 0.000000 -1.000000 0.000000
vn 0.000000 -1.000000 0.000000
vn 0.000000 -1.000000 -0.000000
vn 0.000000 -1.000000 -0.000024
vn 0.000000 -1.000000 0.000002
vn 0.000000 -1.000000 0.000000
vn 0.000000 -1.000000 0.000000
vn 0.000000 -1.000000 0.000000
vn 0.000000 0.000000 -1.000000
vn 0.000000 0.000000 -1.000000
vn 0.000000 0.000000 -1.000000
vn 0.000000 0.000000 -1.000000
vn 0.000000 0.000000 -1.000000
vn 0.000000 0.000000 -1.000000
vn 0.000000 0.000000 -1.000000
vn 0.000000 0.000000 -1.000000
vn -1.000000 0.000000 0.000000
vn -1.000000 0.000000 0.000000
vn -1.000000 0.000000 0.000000
vn -1.000000 0.000000 0.000000
vn 0.000000 0.000000 1.000000
vn 0.000000 0.000000 1.000000
vn 0.000000 0.000000 1.000000
vn 0.000000 0.000000 1.000000
vn 0.000000 0.000000 -1.000000
vn 0.000000 0.000000 -1.000000
vn 0.000000 0.000000 -1.000000
vn 0.000000 0.000000 -1.000000
vn -1.000000 0.000000 0.000000
vn -1.000000 0.000000 0.000000
vn -1.000000 0.000000 0.000000
vn -1.000000 0.000000 0.000000
vn 0.000000 0.000000 1.000000
vn 0.000000 0.000000 1.000000
vn 0.000000 0.000000 1.000000
vn 0.000000 0.000000 1.000000
s 1
g disk book
usemtl blinn2SG
f 107/141/161 117/142/162 131/143/163 132/144/164
s 2
f 109/145/165 118/146/166 142/147/167 143/148/168
s 3
f 133/149/169 134/150/170 120/151/171 105/152/172
s 4
f 137/153/173 138/154/174 129/155/175 108/156/176
s 5
f 145/157/177 146/158/178 107/141/179 132/159/180
s 1
f 113/160/181 108/156/182 129/161/183 130/162/184
s 2
f 141/163/185 114/164/186 110/165/187 140/166/188
s 3
f 116/167/189 135/168/190 136/169/191 106/170/192
s 1
f 117/142/162 113/160/181 130/162/184 131/143/163
s 2
f 142/147/167 118/146/166 114/164/186 141/163/185
s 3
f 120/151/171 134/150/170 135/168/190 116/167/189
s 1
f 122/171/193 121/172/194 110/165/195 114/164/196
f 123/173/197 122/171/193 114/164/196 118/146/198
f 124/174/199 123/173/197 118/146/198 109/145/200
s 5
f 143/175/201 144/176/202 124/177/203 109/178/204
s 3
f 111/179/205 119/180/206 126/181/207 125/182/208
f 127/183/209 126/181/207 119/180/206 115/184/210
f 128/185/211 127/183/209 115/184/210 112/186/212
s 4
f 121/187/213 139/188/214 140/189/215 110/190/216
s 1
f 130/162/184 129/161/183 121/172/194 122/171/193
f 131/143/163 130/162/184 122/171/193 123/173/197
f 132/144/164 131/143/163 123/173/197 124/174/199
s 5
f 144/176/202 145/157/177 132/159/180 124/177/203
s 3
f 125/182/208 126/181/207 134/150/170 133/149/169
f 135/168/190 134/150/170 126/181/207 127/183/209
f 136/169/191 135/168/190 127/183/209 128/185/211
s 4
f 129/155/175 138/154/174 139/188/214 121/187/213
f 147/191/217 148/192/218 138/154/174 137/153/173
f 139/188/214 138/154/174 148/192/218 149/193/219
f 140/189/215 139/188/214 149/193/219 150/194/220
s 2
f 151/195/221 141/163/185 140/166/188 150/196/222
f 152/197/223 142/147/167 141/163/185 151/195/221
f 143/148/168 142/147/167 152/197/223 153/198/224
s 5
f 153/199/225 154/200/226 144/176/202 143/175/201
f 154/200/226 155/201/227 145/157/177 144/176/202
f 155/201/227 156/202/228 146/158/178 145/157/177
s 4
f 106/203/229 136/204/230 148/192/218 147/191/217
f 149/193/219 148/192/218 136/204/230 128/205/231
f 150/194/220 149/193/219 128/205/231 112/206/232
s 2
f 115/184/233 151/195/221 150/196/222 112/186/234
f 119/180/235 152/197/223 151/195/221 115/184/233
f 153/198/224 152/197/223 119/180/235 111/179/236
s 5
f 111/207/237 125/208/238 154/200/226 153/199/225
f 125/208/238 133/209/239 155/201/227 154/200/226
f 133/209/239 105/210/240 156/202/228 155/201/227
