# This file uses centimeters as units for non-parametric coordinates.

mtllib Lamparafinal.mtl
g default
v -26.065435 12.744817 -10.213927
v -27.500380 12.744817 -10.847265
v -28.935324 12.744817 -10.213927
v -29.704994 12.744817 -8.684913
v -28.935324 12.744817 -7.155898
v -27.500380 12.744817 -6.522561
v -26.065435 12.744817 -7.155898
v -25.295765 12.744817 -8.684913
v -26.240734 15.679977 -9.944559
v -27.500380 15.679977 -10.466321
v -28.760025 15.679977 -9.944559
v -29.281788 15.679977 -8.684913
v -28.760025 15.679977 -7.425267
v -27.500380 15.679977 -6.903504
v -26.240734 15.679977 -7.425266
v -25.718971 15.679977 -8.684913
v -27.500380 15.679977 -8.684913
g lamp2:default1
v -27.130646 9.672352 -8.906776
v -27.420563 9.672352 -8.906776
v -27.130646 9.672352 -8.505981
v -27.420563 9.672352 -8.505981
v -25.686211 6.978920 -10.130184
v -28.864998 6.978920 -10.130184
v -27.420563 9.672352 -8.906776
v -27.130646 9.672352 -8.906776
v -27.420563 9.672352 -8.505981
v -28.864998 6.978920 -7.282574
v -25.686211 6.978920 -7.282574
v -27.130646 9.672352 -8.505981
v -27.420563 7.154699 -8.906776
v -27.130646 7.154699 -8.906776
v -27.130646 7.154699 -8.505981
v -27.420563 7.154699 -8.505981
v -26.686707 10.617723 -8.886887
v -26.921021 10.787738 -8.902367
v -26.941895 10.795416 -8.502190
v -26.707581 10.625399 -8.486710
v -27.273178 13.485778 -9.057793
v -27.560028 13.444289 -9.064613
v -27.577881 13.502667 -8.668495
v -27.291046 13.544159 -8.661674
vt 0.375000 0.312500
vt 0.406250 0.312500
vt 0.437500 0.312500
vt 0.468750 0.312500
vt 0.500000 0.312500
vt 0.531250 0.312500
vt 0.562500 0.312500
vt 0.593750 0.312500
vt 0.625000 0.312500
vt 0.375000 0.688440
vt 0.406250 0.688440
vt 0.437500 0.688440
vt 0.468750 0.688440
vt 0.500000 0.688440
vt 0.531250 0.688440
vt 0.562500 0.688440
vt 0.593750 0.688440
vt 0.625000 0.688440
vt 0.610485 0.733265
vt 0.500000 0.687500
vt 0.389515 0.733265
vt 0.343750 0.843750
vt 0.389515 0.954235
vt 0.500000 1.000000
vt 0.610485 0.954235
vt 0.656250 0.843750
vt 0.500000 0.837500
vt 0.375000 0.000000
vt 0.625000 0.000000
vt 0.625000 0.005382
vt 0.375000 0.005382
vt 0.375000 0.250000
vt 0.625000 0.250000
vt 0.625000 0.500000
vt 0.375000 0.500000
vt 0.625000 0.744618
vt 0.625000 0.750000
vt 0.375000 0.750000
vt 0.375000 0.744618
vt 0.625000 1.000000
vt 0.375000 1.000000
vt 0.875000 0.000000
vt 0.875000 0.005382
vt 0.125000 0.005382
vt 0.125000 0.000000
vt 0.625000 0.250000
vt 0.375000 0.250000
vt 0.375000 0.250000
vt 0.625000 0.250000
vt 0.375000 0.500000
vt 0.625000 0.500000
vt 0.625000 0.500000
vt 0.375000 0.500000
vt 0.875000 0.250000
vt 0.875000 0.250000
vt 0.125000 0.250000
vt 0.125000 0.250000
vt 0.625000 0.250000
vt 0.375000 0.250000
vt 0.625000 0.500000
vt 0.375000 0.500000
vn 0.391482 0.112858 -0.913239
vn 0.391482 0.112858 -0.913239
vn 0.391482 0.112858 -0.913239
vn 0.391482 0.112858 -0.913239
vn -0.391482 0.112859 -0.913239
vn -0.391482 0.112859 -0.913239
vn -0.391482 0.112859 -0.913239
vn -0.391482 0.112859 -0.913239
vn -0.901801 0.111106 -0.417625
vn -0.901801 0.111106 -0.417625
vn -0.901801 0.111106 -0.417625
vn -0.901801 0.111106 -0.417625
vn -0.901801 0.111106 0.417625
vn -0.901801 0.111106 0.417625
vn -0.901801 0.111106 0.417625
vn -0.901801 0.111106 0.417625
vn -0.391482 0.112859 0.913239
vn -0.391482 0.112859 0.913239
vn -0.391482 0.112859 0.913239
vn -0.391482 0.112859 0.913239
vn 0.391482 0.112858 0.913239
vn 0.391482 0.112858 0.913239
vn 0.391482 0.112858 0.913239
vn 0.391482 0.112858 0.913239
vn 0.901801 0.111107 0.417625
vn 0.901801 0.111107 0.417625
vn 0.901801 0.111107 0.417625
vn 0.901801 0.111107 0.417625
vn 0.901801 0.111106 -0.417625
vn 0.901801 0.111106 -0.417625
vn 0.901801 0.111106 -0.417625
vn 0.901801 0.111106 -0.417625
vn 0.000000 1.000000 0.000000
vn 0.000000 1.000000 0.000000
vn 0.000000 1.000000 0.000000
vn 0.000000 1.000000 0.000000
vn 0.000000 1.000000 0.000000
vn 0.000000 1.000000 0.000000
vn 0.000000 1.000000 0.000000
vn 0.000000 1.000000 0.000000
vn 0.000000 1.000000 0.000000
vn 0.000000 0.989835 -0.142220
vn 0.000000 0.989835 -0.142220
vn 0.000000 0.938979 -0.343975
vn 0.000000 0.938979 -0.343975
vn -0.138017 0.978929 -0.150495
vn -0.138017 0.978929 -0.150495
vn -0.138017 0.978929 -0.150495
vn -0.138017 0.978929 -0.150495
vn 0.000000 0.938979 0.343975
vn 0.000000 0.989835 0.142220
vn 0.000000 0.989835 0.142220
vn 0.000000 0.938979 0.343975
vn 0.000000 -1.000000 0.000000
vn 0.000000 -1.000000 0.000000
vn 0.000000 -1.000000 0.000000
vn 0.000000 -1.000000 0.000000
vn -0.120804 0.992676 0.000000
vn -0.120804 0.992676 0.000000
vn -0.387221 0.921987 0.000000
vn -0.387221 0.921987 0.000000
vn 0.387220 0.921987 0.000000
vn 0.120804 0.992676 0.000000
vn 0.120804 0.992676 0.000000
vn 0.387220 0.921987 0.000000
vn 0.000000 0.000000 0.000000
vn 0.000000 0.000000 0.000000
vn 0.000000 0.000000 0.000000
vn 0.000000 0.000000 0.000000
vn 0.000000 0.000000 0.000000
vn 0.000000 0.000000 0.000000
vn 0.000000 0.000000 0.000000
vn 0.000000 0.000000 0.000000
vn 0.000000 0.000000 0.000000
vn 0.000000 0.000000 0.000000
vn 0.000000 0.000000 0.000000
vn 0.000000 0.000000 0.000000
vn 0.000000 0.000000 0.000000
vn 0.000000 0.000000 0.000000
vn 0.000000 0.000000 0.000000
vn 0.000000 0.000000 0.000000
vn 0.000000 0.938979 -0.343975
vn 0.000000 0.938979 -0.343975
vn 0.000000 0.000000 -1.000000
vn 0.000000 0.000000 -1.000000
vn 1.000000 0.000000 0.000000
vn 0.387220 0.921987 0.000000
vn 0.387220 0.921987 0.000000
vn 1.000000 0.000000 0.000000
vn 0.000000 0.000000 1.000000
vn 0.000000 0.938979 0.343975
vn 0.000000 0.938979 0.343975
vn 0.000000 0.000000 1.000000
vn -0.387221 0.921987 0.000000
vn -0.387221 0.921987 0.000000
vn -1.000000 0.000000 0.000000
vn -1.000000 0.000000 0.000000
vn 0.029028 -0.001504 -0.999577
vn 0.029028 -0.001504 -0.999577
vn 0.029416 -0.045737 -0.998520
vn 0.029210 -0.021437 -0.999343
vn -0.915937 0.400365 -0.027708
vn -0.915937 0.400365 -0.027708
vn -0.915937 0.400365 -0.027708
vn -0.915937 0.400365 -0.027708
vn -0.029030 0.001504 0.999577
vn -0.029030 0.001504 0.999577
vn -0.029162 0.021844 0.999336
vn -0.029307 0.046391 0.998493
vn 0.909065 -0.415735 0.027675
vn 0.909065 -0.415735 0.027675
vn 0.909065 -0.415735 0.027675
vn 0.909065 -0.415735 0.027675
vn 0.029210 -0.021437 -0.999343
vn 0.029416 -0.045737 -0.998520
vn 0.029480 -0.053651 -0.998124
vn 0.029480 -0.053651 -0.998124
vn -0.972125 -0.232791 -0.027967
vn -0.972125 -0.232791 -0.027967
vn -0.972125 -0.232791 -0.027967
vn -0.972125 -0.232791 -0.027967
vn -0.029307 0.046391 0.998493
vn -0.029162 0.021844 0.999336
vn -0.029349 0.054182 0.998100
vn -0.029349 0.054182 0.998100
vn 0.979334 0.199851 0.031069
vn 0.979334 0.199851 0.031069
vn 0.979334 0.199851 0.031069
vn 0.979334 0.199851 0.031069
s off
g pCylinder2
usemtl lambert2SG
f 1/1/1 2/2/2 10/11/3 9/10/4
f 2/2/5 3/3/6 11/12/7 10/11/8
f 3/3/9 4/4/10 12/13/11 11/12/12
f 4/4/13 5/5/14 13/14/15 12/13/16
f 5/5/17 6/6/18 14/15/19 13/14/20
f 6/6/21 7/7/22 15/16/23 14/15/24
f 7/7/25 8/8/26 16/17/27 15/16/28
f 8/8/29 1/9/30 9/18/31 16/17/32
s 1
f 9/25/33 10/24/34 17/27/35
f 10/24/34 11/23/36 17/27/35
f 11/23/36 12/22/37 17/27/35
f 12/22/37 13/21/38 17/27/35
f 13/21/38 14/20/39 17/27/35
f 14/20/39 15/19/40 17/27/35
f 15/19/40 16/26/41 17/27/35
f 16/26/41 9/25/33 17/27/35
s off
g lamp2:bed_table lamp2:lamp2 lamp2:lampp1 pCylinder2
usemtl lamp2:blinn2SG
f 22/28/42 23/29/43 30/30/44 31/31/45
f 38/32/46 39/33/47 40/34/48 41/35/49
f 33/36/50 27/37/51 28/38/52 32/39/53
f 28/38/54 27/37/55 23/40/56 22/41/57
f 23/29/58 27/42/59 33/43/60 30/30/61
f 32/44/62 28/45/63 22/28/64 31/31/65
f 19/46/66 18/47/67 25/48/68 24/49/69
f 20/50/70 21/51/71 26/52/72 29/53/73
f 21/54/74 19/46/75 24/49/76 26/55/77
f 18/47/78 20/56/79 29/57/80 25/48/81
f 31/31/82 30/30/83 24/49/84 25/48/85
f 29/57/86 32/44/87 31/31/88 25/48/89
f 26/52/90 33/36/91 32/39/92 29/53/93
f 30/30/94 33/43/95 26/55/96 24/49/97
f 18/47/98 19/46/99 35/58/100 34/59/101
f 19/46/102 21/51/103 36/60/104 35/58/105
f 21/51/106 20/50/107 37/61/108 36/60/109
f 20/50/110 18/47/111 34/59/112 37/61/113
f 34/59/114 35/58/115 39/33/116 38/32/117
f 35/58/118 36/60/119 40/34/120 39/33/121
f 36/60/122 37/61/123 41/35/124 40/34/125
f 37/61/126 34/59/127 38/32/128 41/35/129
